<?xml version="1.0" standalone="no"?><!-- Generator: Adobe Fireworks CS5.1, Export SVG Extension by Aaron Beall (http://fireworks.abeall.com) . Version: 0.6.1  --><!DOCTYPE svg PUBLIC "-//W3C//DTD SVG 1.1//EN" "http://www.w3.org/Graphics/SVG/1.1/DTD/svg11.dtd"><svg id="Untitled-Page%201" viewBox="0 0 46 46" style="background-color:#ffffff00" version="1.1"	xmlns="http://www.w3.org/2000/svg" xmlns:xlink="http://www.w3.org/1999/xlink" xml:space="preserve"	x="0px" y="0px" width="46px" height="46px">	<defs>		<filter id="filter1" x="-100%" y="-100%" width="300%" height="300%">			<!-- Drop Shadow -->			<feOffset result="out" in="SourceGraphic" dx="2.8284" dy="2.8284"/>			<feColorMatrix result="out" in="out" type="matrix" values="0 0 0 0 0  0 0 0 0 0  0 0 0 0 0  0 0 0 0.149 0"/>			<feGaussianBlur result="out" in="out" stdDeviation="0"/>			<feBlend in="SourceGraphic" in2="out" mode="normal" result="Drop_Shadow1"/>		</filter>	</defs>	<path opacity="0.8" filter="url(#filter1)" d="M 24.9999 10 L 24.9999 19 L 34 19 L 34 25 L 24.9999 25 L 24.9999 34 L 18.9999 34 L 18.9999 25 L 10 25 L 10 19 L 18.9999 19 L 18.9999 10 L 24.9999 10 ZM 21.9999 0 C 9.8492 0 0 9.8492 0 22 C 0 34.1508 9.8492 44 21.9999 44 C 34.1508 44 44 34.1508 44 22 C 44 9.8492 34.1508 0 21.9999 0 Z" fill="#ffffff"/></svg>