<?xml version="1.0" standalone="no"?><!-- Generator: Adobe Fireworks CS5.1, Export SVG Extension by Aaron Beall (http://fireworks.abeall.com) . Version: 0.6.1  --><!DOCTYPE svg PUBLIC "-//W3C//DTD SVG 1.1//EN" "http://www.w3.org/Graphics/SVG/1.1/DTD/svg11.dtd"><svg id="Untitled-Page%201" viewBox="0 0 44 28" style="background-color:#ffffff00" version="1.1"	xmlns="http://www.w3.org/2000/svg" xmlns:xlink="http://www.w3.org/1999/xlink" xml:space="preserve"	x="0px" y="0px" width="44px" height="28px">	<g id="Layer%201">		<path d="M 12.0694 22.8955 L 19.5971 27.7265 C 20.6246 28.3849 21.4386 27.815 21.4045 26.4411 L 21.2248 19.9074 C 24.3607 18.9904 44 14.4205 44 14.4205 C 44 14.4205 24.7827 8.5705 20.9077 7.9803 L 20.7322 1.511 C 20.6982 0.1483 19.8556 -0.3965 18.8621 0.3092 L 11.6024 5.4622 C 10.6117 6.1664 8.9826 7.318 7.9877 8.0196 L 0.7253 13.1767 C -0.2655 13.8781 -0.2396 15.0023 0.7933 15.6631 L 8.3157 20.4903 C 9.3527 21.1526 11.0418 22.2339 12.0694 22.8955 Z" fill="#ffffff"/>	</g></svg>