<?xml version="1.0" standalone="no"?><!-- Generator: Adobe Fireworks CS5.1, Export SVG Extension by Aaron Beall (http://fireworks.abeall.com) . Version: 0.6.1  --><!DOCTYPE svg PUBLIC "-//W3C//DTD SVG 1.1//EN" "http://www.w3.org/Graphics/SVG/1.1/DTD/svg11.dtd"><svg id="Untitled-Page%201" viewBox="0 0 29 31" style="background-color:#ffffff00" version="1.1"	xmlns="http://www.w3.org/2000/svg" xmlns:xlink="http://www.w3.org/1999/xlink" xml:space="preserve"	x="0px" y="0px" width="29px" height="31px">	<g id="Layer%201">		<path d="M 0.6641 9.4834 L 0.6641 29.7578 C 0.6641 30.4272 1.2065 30.9697 1.8755 30.9697 L 27.0298 30.9697 C 27.6982 30.9697 28.2412 30.4272 28.2412 29.7578 L 28.2412 9.4834 L 0.6641 9.4834 ZM 7.6914 28.6592 L 2.8667 28.6592 L 2.8667 23.8745 L 7.6914 23.8745 L 7.6914 28.6592 ZM 7.6914 22.7002 L 2.8667 22.7002 L 2.8667 17.9146 L 7.6914 17.9146 L 7.6914 22.7002 ZM 7.6914 16.6587 L 2.8667 16.6587 L 2.8667 11.8735 L 7.6914 11.8735 L 7.6914 16.6587 ZM 13.7446 28.6592 L 8.9209 28.6592 L 8.9209 23.8745 L 13.7446 23.8745 L 13.7446 28.6592 ZM 13.7446 22.7002 L 8.9209 22.7002 L 8.9209 17.9146 L 13.7446 17.9146 L 13.7446 22.7002 ZM 13.7446 16.6587 L 8.9209 16.6587 L 8.9209 11.8735 L 13.7446 11.8735 L 13.7446 16.6587 ZM 19.7988 28.6592 L 14.9746 28.6592 L 14.9746 23.8745 L 19.7988 23.8745 L 19.7988 28.6592 ZM 19.7988 22.7002 L 14.9746 22.7002 L 14.9746 17.9146 L 19.7988 17.9146 L 19.7988 22.7002 ZM 19.7988 16.6587 L 14.9746 16.6587 L 14.9746 11.8735 L 19.7988 11.8735 L 19.7988 16.6587 ZM 25.8525 28.6592 L 21.0288 28.6592 L 21.0288 23.8745 L 25.8525 23.8745 L 25.8525 28.6592 ZM 25.8525 22.7002 L 21.0288 22.7002 L 21.0288 17.9146 L 25.8525 17.9146 L 25.8525 22.7002 ZM 25.8525 16.6587 L 21.0288 16.6587 L 21.0288 11.8735 L 25.8525 11.8735 L 25.8525 16.6587 ZM 27.0298 4.6353 L 22.2568 4.6353 L 22.2568 0.9697 L 19.9053 0.9697 L 19.9053 4.6353 L 9 4.6353 L 9 0.9697 L 6.6494 0.9697 L 6.6494 4.6353 L 1.8755 4.6353 C 1.2065 4.6353 0.6641 5.1787 0.6641 5.8472 L 0.6641 7.8203 L 28.2412 7.8203 L 28.2412 5.8472 C 28.2412 5.1787 27.6982 4.6353 27.0298 4.6353 Z" fill="#f1f1f4"/>	</g></svg>