<?xml version="1.0" standalone="no"?><!-- Generator: Adobe Fireworks CS5.1, Export SVG Extension by Aaron Beall (http://fireworks.abeall.com) . Version: 0.6.1  --><!DOCTYPE svg PUBLIC "-//W3C//DTD SVG 1.1//EN" "http://www.w3.org/Graphics/SVG/1.1/DTD/svg11.dtd"><svg id="Untitled-Page%201" viewBox="0 0 41 28" style="background-color:#ffffff00" version="1.1"	xmlns="http://www.w3.org/2000/svg" xmlns:xlink="http://www.w3.org/1999/xlink" xml:space="preserve"	x="0px" y="0px" width="41px" height="28px">	<g id="Layer%201">		<path d="M 25.1672 0 L 3.4127 0 C 1.5282 0 0 1.5308 0 3.4201 L 0 24.5806 C 0 26.4672 1.5282 28 3.4127 28 L 25.1672 28 C 27.0517 28 28.5799 26.4672 28.5799 24.5806 L 28.5799 3.4201 C 28.5799 1.5308 27.0517 0 25.1672 0 ZM 39.8068 3.394 L 30.8941 11.7643 L 30.8941 13.6001 L 30.8941 14.3992 L 30.8941 16.2344 L 39.8068 24.606 L 41 24.606 L 41 14.4788 L 41 13.5212 L 41 3.394 L 39.8068 3.394 Z" fill="#f1f1f4"/>	</g></svg>