<?xml version="1.0" standalone="no"?><!-- Generator: Adobe Fireworks CS5.1, Export SVG Extension by Aaron Beall (http://fireworks.abeall.com) . Version: 0.6.1  --><!DOCTYPE svg PUBLIC "-//W3C//DTD SVG 1.1//EN" "http://www.w3.org/Graphics/SVG/1.1/DTD/svg11.dtd"><svg id="Untitled-Page%201" viewBox="0 0 31 31" style="background-color:#ffffff00" version="1.1"	xmlns="http://www.w3.org/2000/svg" xmlns:xlink="http://www.w3.org/1999/xlink" xml:space="preserve"	x="0px" y="0px" width="31px" height="31px">	<g id="Layer%201">		<path opacity="0.502" d="M 27.9943 0.7068 L 2.6188 0.7068 C 1.3416 0.7068 0.307 1.7417 0.307 3.019 L 0.307 28.49 C 0.307 29.7661 1.3416 30.7046 2.6188 30.7046 L 27.9943 30.7046 C 29.2706 30.7046 30.3052 29.7661 30.3052 28.49 L 30.3052 3.019 C 30.3052 1.7417 29.2706 0.7068 27.9943 0.7068 ZM 16.0634 10.6445 C 15.331 10.2163 14.749 9.8789 14.0234 9.8789 C 13.3091 9.8789 12.6944 10.0576 12.3839 10.3579 C 12.0734 10.6582 11.9191 11.2349 11.9191 12.0886 L 11.9191 13.3494 L 15.7391 13.3494 L 14.9111 16.8618 L 11.9191 16.8618 L 11.9191 28.5271 L 7.1215 28.5271 L 7.1215 16.8618 L 4.8775 16.8618 L 4.8775 13.3494 L 7.1215 13.3494 L 7.1215 12.009 C 7.1215 10.5972 7.2885 9.752 7.6224 9.0562 C 7.9554 8.3613 8.6019 7.5881 9.4963 7.1511 C 10.3914 6.7141 11.7194 6.4954 13.0889 6.4954 C 14.4931 6.4954 15.5917 6.9612 16.9383 7.3406 L 16.0634 10.6445 Z" fill="#ffffff"/>	</g></svg>