<?xml version="1.0" standalone="no"?><!-- Generator: Adobe Fireworks CS5.1, Export SVG Extension by Aaron Beall (http://fireworks.abeall.com) . Version: 0.6.1  --><!DOCTYPE svg PUBLIC "-//W3C//DTD SVG 1.1//EN" "http://www.w3.org/Graphics/SVG/1.1/DTD/svg11.dtd"><svg id="Untitled-Page%201" viewBox="0 0 52 28" style="background-color:#ffffff00" version="1.1"	xmlns="http://www.w3.org/2000/svg" xmlns:xlink="http://www.w3.org/1999/xlink" xml:space="preserve"	x="0px" y="0px" width="52px" height="28px">	<defs>		<filter id="filter1" x="-100%" y="-100%" width="300%" height="300%">			<!-- Drop Shadow -->			<feOffset result="out" in="SourceGraphic" dx="2.1213" dy="2.1213"/>			<feColorMatrix result="out" in="out" type="matrix" values="0 0 0 0 0  0 0 0 0 0  0 0 0 0 0  0 0 0 0.149 0"/>			<feGaussianBlur result="out" in="out" stdDeviation="0"/>			<feBlend in="SourceGraphic" in2="out" mode="normal" result="Drop_Shadow1"/>		</filter>	</defs>	<g id="Layer%201">		<path d="M 42.68 14.5919 C 46.0527 14.5919 48.7872 11.9739 48.7872 8.7453 C 48.7872 5.5166 46.0527 2.899 42.68 2.899 C 39.3073 2.899 36.5731 5.5166 36.5731 8.7453 C 36.5731 11.9739 39.3073 14.5919 42.68 14.5919 ZM 45.8698 15.1078 C 44.9388 15.6574 43.8536 15.9901 42.68 15.9901 C 41.506 15.9901 40.4208 15.6574 39.4902 15.1078 C 36.2068 16.0595 33.8175 18.7813 33.8175 22.0282 C 33.8175 22.0938 33.8372 22.154 33.8395 22.219 L 51.5204 22.219 C 51.5221 22.154 51.5425 22.0938 51.5425 22.0282 C 51.5425 18.7813 49.1528 16.0595 45.8698 15.1078 Z" fill="#5d646f"/>		<path d="M 9.6472 14.5919 C 13.0199 14.5919 15.7545 11.9739 15.7545 8.7453 C 15.7545 5.5166 13.0199 2.899 9.6472 2.899 C 6.2745 2.899 3.5403 5.5166 3.5403 8.7453 C 3.5403 11.9739 6.2745 14.5919 9.6472 14.5919 ZM 12.837 15.1078 C 11.9061 15.6574 10.8208 15.9901 9.6472 15.9901 C 8.4733 15.9901 7.388 15.6574 6.4574 15.1078 C 3.1741 16.0595 0.7847 18.7813 0.7847 22.0282 C 0.7847 22.0938 0.8044 22.154 0.8068 22.219 L 18.4877 22.219 C 18.4893 22.154 18.5096 22.0938 18.5096 22.0282 C 18.5096 18.7813 16.1201 16.0595 12.837 15.1078 Z" fill="#5d646f"/>		<path filter="url(#filter1)" d="M 26.1838 15.6051 C 30.2229 15.6051 33.4978 12.3326 33.4978 8.2972 C 33.4978 4.2616 30.2229 0.9899 26.1838 0.9899 C 22.1447 0.9899 18.8702 4.2616 18.8702 8.2972 C 18.8702 12.3326 22.1447 15.6051 26.1838 15.6051 ZM 30.0038 16.25 C 28.889 16.9366 27.5893 17.3525 26.1838 17.3525 C 24.7778 17.3525 23.4781 16.9366 22.3638 16.25 C 18.4316 17.4394 15.5702 20.8412 15.5702 24.8996 C 15.5702 24.9818 15.5938 25.0568 15.5966 25.1382 L 36.771 25.1382 C 36.773 25.0568 36.7974 24.9818 36.7974 24.8996 C 36.7974 20.8412 33.9356 17.4394 30.0038 16.25 Z" fill="#ffffff"/>	</g></svg>