<?xml version="1.0" standalone="no"?><!-- Generator: Adobe Fireworks CS5.1, Export SVG Extension by Aaron Beall (http://fireworks.abeall.com) . Version: 0.6.1  --><!DOCTYPE svg PUBLIC "-//W3C//DTD SVG 1.1//EN" "http://www.w3.org/Graphics/SVG/1.1/DTD/svg11.dtd"><svg id="Untitled-Page%201" viewBox="0 0 52 26" style="background-color:#ffffff00" version="1.1"	xmlns="http://www.w3.org/2000/svg" xmlns:xlink="http://www.w3.org/1999/xlink" xml:space="preserve"	x="0px" y="0px" width="52px" height="26px">	<defs>		<filter id="filter1" x="-100%" y="-100%" width="300%" height="300%">			<!-- Drop Shadow -->			<feOffset result="out" in="SourceGraphic" dx="2.1213" dy="2.1213"/>			<feColorMatrix result="out" in="out" type="matrix" values="0 0 0 0 0  0 0 0 0 0  0 0 0 0 0  0 0 0 0.149 0"/>			<feGaussianBlur result="out" in="out" stdDeviation="0"/>			<feBlend in="SourceGraphic" in2="out" mode="normal" result="Drop_Shadow1"/>		</filter>	</defs>	<g id="Layer%201">		<path d="M 42.68 15.592 C 46.0527 15.592 48.7872 12.9739 48.7872 9.7453 C 48.7872 6.5166 46.0527 3.899 42.68 3.899 C 39.3073 3.899 36.5731 6.5166 36.5731 9.7453 C 36.5731 12.9739 39.3073 15.592 42.68 15.592 ZM 45.8698 16.1079 C 44.9389 16.6574 43.8536 16.9901 42.68 16.9901 C 41.506 16.9901 40.4208 16.6574 39.4902 16.1079 C 36.2068 17.0595 33.8175 19.7813 33.8175 23.0282 C 33.8175 23.0938 33.8372 23.154 33.8395 23.219 L 51.5204 23.219 C 51.5221 23.154 51.5424 23.0938 51.5424 23.0282 C 51.5424 19.7813 49.1528 17.0595 45.8698 16.1079 Z" fill="#5d646f"/>		<path d="M 9.6472 15.592 C 13.0199 15.592 15.7544 12.9739 15.7544 9.7453 C 15.7544 6.5166 13.0199 3.899 9.6472 3.899 C 6.2745 3.899 3.5403 6.5166 3.5403 9.7453 C 3.5403 12.9739 6.2745 15.592 9.6472 15.592 ZM 12.837 16.1079 C 11.9061 16.6574 10.8208 16.9901 9.6472 16.9901 C 8.4733 16.9901 7.388 16.6574 6.4574 16.1079 C 3.174 17.0595 0.7847 19.7813 0.7847 23.0282 C 0.7847 23.0938 0.8045 23.154 0.8068 23.219 L 18.4876 23.219 C 18.4893 23.154 18.5097 23.0938 18.5097 23.0282 C 18.5097 19.7813 16.12 17.0595 12.837 16.1079 Z" fill="#5d646f"/>		<path filter="url(#filter1)" d="M 26.1838 15.6051 C 30.2229 15.6051 33.4978 12.3326 33.4978 8.2972 C 33.4978 4.2616 30.2229 0.9899 26.1838 0.9899 C 22.1446 0.9899 18.8702 4.2616 18.8702 8.2972 C 18.8702 12.3326 22.1446 15.6051 26.1838 15.6051 ZM 30.0038 16.25 C 28.889 16.9366 27.5893 17.3525 26.1838 17.3525 C 24.7779 17.3525 23.4782 16.9366 22.3637 16.25 C 18.4316 17.4394 15.5702 20.8412 15.5702 24.8996 C 15.5702 24.9817 15.5938 25.0568 15.5965 25.1382 L 36.771 25.1382 C 36.773 25.0568 36.7974 24.9817 36.7974 24.8996 C 36.7974 20.8412 33.9356 17.4394 30.0038 16.25 Z" fill="#ffffff"/>	</g></svg>