<?xml version="1.0" standalone="no"?><!-- Generator: Adobe Fireworks CS5.1, Export SVG Extension by Aaron Beall (http://fireworks.abeall.com) . Version: 0.6.1  --><!DOCTYPE svg PUBLIC "-//W3C//DTD SVG 1.1//EN" "http://www.w3.org/Graphics/SVG/1.1/DTD/svg11.dtd"><svg id="Untitled-Page%201" viewBox="0 0 39 21" style="background-color:#ffffff00" version="1.1"	xmlns="http://www.w3.org/2000/svg" xmlns:xlink="http://www.w3.org/1999/xlink" xml:space="preserve"	x="0px" y="0px" width="39px" height="21px">	<g id="Layer%201">		<path id="key" d="M 35.859 18.375 L 35.859 13.125 L 33.1447 13.125 L 33.1447 18.375 L 30.4304 18.375 L 30.4304 13.125 L 21.9037 13.125 C 20.6928 17.646 16.4836 21 11.4304 21 C 5.4342 21 0.5732 16.2991 0.5732 10.5 C 0.5732 4.7012 5.4342 0 11.4304 0 C 16.4836 0 20.6928 3.3543 21.9037 7.875 L 38.5732 7.875 L 38.5732 13.125 L 38.5732 18.375 L 35.859 18.375 ZM 11.4304 5.25 C 8.4323 5.25 6.0019 7.6005 6.0019 10.5 C 6.0019 13.3995 8.4323 15.75 11.4304 15.75 C 14.4286 15.75 16.859 13.3995 16.859 10.5 C 16.859 7.6005 14.4286 5.25 11.4304 5.25 Z" fill="#cccccc"/>	</g></svg>