<?xml version="1.0" standalone="no"?><!-- Generator: Adobe Fireworks CS5.1, Export SVG Extension by Aaron Beall (http://fireworks.abeall.com) . Version: 0.6.1  --><!DOCTYPE svg PUBLIC "-//W3C//DTD SVG 1.1//EN" "http://www.w3.org/Graphics/SVG/1.1/DTD/svg11.dtd"><svg id="Untitled-Page%201" viewBox="0 0 34 68" style="background-color:#ffffff00" version="1.1"	xmlns="http://www.w3.org/2000/svg" xmlns:xlink="http://www.w3.org/1999/xlink" xml:space="preserve"	x="0px" y="0px" width="34px" height="68px">	<g id="Layer%201">		<path d="M 31.8444 63.9462 C 29.5657 65.002 25.3318 64.7155 25.3318 64.7155 C 25.3318 64.7155 29.5051 64.014 31.0841 63.3229 C 32.1033 62.8773 33.3562 61.8282 33.6509 61.5753 C 33.4532 61.2098 32.6031 59.6295 32.1187 58.6371 C 31.5674 57.5093 29.6251 55.0957 29.6251 55.0957 C 29.6251 55.0957 32.4652 57.5517 33.8113 59.7249 C 34.2103 60.3706 34.5452 60.8765 34.8174 61.2709 C 34.4577 60.6608 34.073 59.9296 33.9871 59.4576 C 33.8174 58.5243 34.4583 56.8128 32.8654 55.1569 C 31.4272 53.662 28.4763 53.3829 26.4697 52.0806 C 26.4697 52.0806 27.5369 54.2784 27.7694 55.637 C 27.9933 56.9483 27.9332 58.7478 29.1285 59.4673 C 30.1418 60.0776 31.5287 60.7202 32.7507 61.2441 C 29.8466 60.365 27.9718 60.7219 27.0411 61.0836 C 25.8946 61.5293 24.6295 63.5101 23.3975 64.4952 C 22.3259 65.3514 20.2444 66.3967 20.2444 66.3967 C 23.6003 66.9436 24.9387 68.4718 27.7351 67.8285 C 30.7441 67.1346 30.8652 65.4143 32.0884 64.1698 C 32.4537 63.7975 32.9804 63.467 33.5133 63.1934 C 33.0505 63.3956 32.4967 63.6448 31.8444 63.9462 Z" fill="#ffffff"/>		<path d="M 22.6902 59.6678 C 20.3401 60.0765 16.5248 58.7725 16.5248 58.7725 C 16.5248 58.7725 20.5271 59.1544 22.1458 58.9087 C 23.191 58.7501 24.5983 58.0953 24.9313 57.9358 C 24.8405 57.5513 24.4489 55.8926 24.2473 54.8628 C 24.0201 53.6924 22.8311 51.0002 22.8311 51.0002 C 22.8311 51.0002 24.8328 53.9518 25.5337 56.2775 C 25.7409 56.967 25.9233 57.5139 26.0768 57.9429 C 25.8967 57.295 25.7238 56.529 25.7611 56.075 C 25.835 55.1772 26.8439 53.7641 25.7892 51.8527 C 24.8376 50.1283 22.1981 49.146 20.677 47.4586 C 20.677 47.4586 21.1165 49.7379 20.9957 51.0414 C 20.8781 52.2997 20.3805 53.9359 21.2999 54.8896 C 22.0796 55.6989 23.1949 56.6293 24.1872 57.4103 C 21.7381 55.8898 19.9298 55.7571 18.9871 55.8602 C 17.825 55.9872 16.1771 57.4939 14.8042 58.0948 C 13.6107 58.6174 11.4432 59.0652 11.4432 59.0652 C 14.3881 60.3915 15.2404 62.1234 17.965 62.2197 C 20.8962 62.3238 21.4312 60.7744 22.8593 59.9327 C 23.2862 59.6801 23.8505 59.5065 24.4074 59.3867 C 23.9326 59.4586 23.3629 59.5502 22.6902 59.6678 Z" fill="#ffffff"/>		<path d="M 15.2808 53.6467 C 13.0233 53.4442 9.8432 51.3101 9.8432 51.3101 C 9.8432 51.3101 13.4219 52.6445 14.9677 52.8168 C 15.9656 52.928 17.4185 52.6731 17.7629 52.6081 C 17.7733 52.2331 17.823 50.6151 17.8917 49.6205 C 17.9706 48.4902 17.5413 45.7278 17.5413 45.7278 C 17.5413 45.7278 18.6531 48.9284 18.7237 51.2337 C 18.7446 51.9186 18.7771 52.465 18.8124 52.8964 C 18.8068 52.2574 18.8362 51.5119 18.9821 51.1042 C 19.2708 50.2991 20.5445 49.2501 20.0472 47.2368 C 19.5975 45.4206 17.4173 43.8704 16.4365 41.9484 C 16.4365 41.9484 16.2794 44.1478 15.8472 45.3148 C 15.4299 46.4399 14.5712 47.8193 15.1797 48.9208 C 15.6962 49.8549 16.4907 50.9827 17.209 51.9429 C 15.3368 49.9466 13.7098 49.3801 12.819 49.2424 C 11.7216 49.0734 9.8383 50.0508 8.4306 50.2656 C 7.2073 50.451 5.1082 50.3297 5.1082 50.3297 C 7.4844 52.2706 7.8405 54.0685 10.3163 54.8275 C 12.9811 55.6426 13.8521 54.3527 15.3706 53.9305 C 15.8246 53.8053 16.3849 53.784 16.9254 53.8108 C 16.4718 53.7603 15.9275 53.704 15.2808 53.6467 Z" fill="#ffffff"/>		<path d="M 9.869 46.4069 C 7.8471 45.6668 5.4538 42.9269 5.4538 42.9269 C 5.4538 42.9269 8.4096 45.0306 9.7863 45.5685 C 10.674 45.916 12.0707 46.0391 12.403 46.0639 C 12.5048 45.7227 12.9479 44.2498 13.2554 43.3544 C 13.6058 42.3365 13.8918 39.696 13.8918 39.696 C 13.8918 39.696 14.1238 42.9061 13.6221 45.0397 C 13.4725 45.6725 13.3679 46.1823 13.2939 46.5864 C 13.4464 45.9988 13.6564 45.3224 13.8907 44.9844 C 14.354 44.3157 15.7798 43.6666 15.8195 41.6968 C 15.8543 39.9196 14.2346 37.9614 13.8074 35.9564 C 13.8074 35.9564 13.1215 37.936 12.4388 38.9002 C 11.7788 39.8313 10.6515 40.886 10.9395 42.0453 C 11.1836 43.0294 11.6356 44.2598 12.0576 45.3175 C 10.8306 43.0251 9.4778 42.1049 8.6943 41.7607 C 7.7279 41.3361 5.7599 41.7709 4.4149 41.6207 C 3.2469 41.4907 1.3502 40.8636 1.3502 40.8636 C 3.0536 43.2283 2.9374 44.9662 5.0233 46.2706 C 7.2679 47.6733 8.3843 46.7035 9.8813 46.69 C 10.3292 46.6862 10.8482 46.8045 11.3375 46.962 C 10.9342 46.8045 10.4476 46.6185 9.869 46.4069 Z" fill="#ffffff"/>		<path d="M 6.554 38.5297 C 4.8807 37.3538 3.3589 34.2512 3.3589 34.2512 C 3.3589 34.2512 5.5533 36.9084 6.6844 37.7399 C 7.4141 38.2773 8.6652 38.733 8.9634 38.8376 C 9.1407 38.5493 9.9099 37.3071 10.4123 36.5605 C 10.9843 35.713 11.8962 33.3604 11.8962 33.3604 C 11.8962 33.3604 11.3199 36.3628 10.334 38.1976 C 10.0411 38.7411 9.8201 39.1832 9.6531 39.5363 C 9.9368 39.0342 10.2962 38.4647 10.5947 38.2125 C 11.1838 37.7137 12.6526 37.468 13.1721 35.6699 C 13.6421 34.0476 12.6378 31.8529 12.7386 29.9075 C 12.7386 29.9075 11.6223 31.5561 10.7589 32.2728 C 9.9232 32.9648 8.6301 33.656 8.6083 34.7905 C 8.5907 35.7531 8.7028 36.9934 8.8307 38.0677 C 8.2679 35.6629 7.2531 34.4865 6.6179 33.9777 C 5.837 33.3504 3.9236 33.265 2.7264 32.7974 C 1.6865 32.3911 0.1011 31.3492 0.1011 31.3492 C 1.0818 33.9376 0.548 35.504 2.1411 37.2134 C 3.8563 39.0518 5.1187 38.4372 6.496 38.7928 C 6.9078 38.8987 7.3544 39.1349 7.765 39.4003 C 7.4332 39.1563 7.0334 38.8662 6.554 38.5297 Z" fill="#ffffff"/>		<path d="M 5.2939 30.5643 C 4.0482 29.0742 3.415 25.8527 3.415 25.8527 C 3.415 25.8527 4.7754 28.8303 5.6078 29.8716 C 6.1453 30.5435 7.181 31.27 7.4299 31.439 C 7.6628 31.2175 8.6741 30.267 9.3193 29.7052 C 10.0527 29.0683 11.468 27.1336 11.468 27.1336 C 11.468 27.1336 10.2008 29.7472 8.8447 31.188 C 8.4421 31.6156 8.1308 31.967 7.89 32.2495 C 8.274 31.8581 8.7444 31.4247 9.0801 31.2661 C 9.7434 30.9526 11.1519 31.0887 12.0707 29.5667 C 12.9005 28.1931 12.5194 25.9327 13.0911 24.1721 C 13.0911 24.1721 11.6609 25.4105 10.6911 25.8568 C 9.7557 26.286 8.3981 26.6021 8.0988 27.6386 C 7.8461 28.5167 7.6437 29.6827 7.4967 30.6998 C 7.5721 28.3549 6.9308 27.0257 6.473 26.4028 C 5.9093 25.6356 4.1753 25.0871 3.1924 24.3636 C 2.3378 23.7349 1.1386 22.3895 1.1386 22.3895 C 1.4023 25.0055 0.527 26.3118 1.5681 28.272 C 2.6891 30.381 3.9998 30.126 5.176 30.7913 C 5.5284 30.99 5.88 31.3167 6.1908 31.6599 C 5.9467 31.3555 5.651 30.9908 5.2939 30.5643 Z" fill="#ffffff"/>		<path d="M 5.9376 23.0049 C 5.1607 21.3306 5.3717 18.2195 5.3717 18.2195 C 5.3717 18.2195 5.8879 21.2864 6.3956 22.4462 C 6.7236 23.1956 7.4951 24.1154 7.6818 24.3322 C 7.9502 24.1861 9.1125 23.5623 9.8421 23.2055 C 10.6714 22.8015 12.447 21.3738 12.447 21.3738 C 12.447 21.3738 10.6405 23.4609 9.042 24.4505 C 8.5677 24.7429 8.1952 24.9888 7.9049 25.1891 C 8.3533 24.9246 8.8915 24.6426 9.2382 24.5794 C 9.9247 24.4549 11.1836 24.9253 12.4012 23.7549 C 13.5006 22.6984 13.7066 20.5306 14.664 19.0549 C 14.664 19.0549 13.0471 19.8401 12.0482 20.0106 C 11.0833 20.1753 9.761 20.1316 9.231 21.0086 C 8.7831 21.7534 8.3104 22.7728 7.9254 23.6703 C 8.571 21.5373 8.3093 20.1595 8.0431 19.4755 C 7.7153 18.6333 6.2581 17.7039 5.5336 16.7984 C 4.9044 16.0118 4.1356 14.4823 4.1356 14.4823 C 3.7335 16.9479 2.609 17.9315 3.0823 19.9855 C 3.592 22.1962 4.8575 22.2852 5.7733 23.1841 C 6.047 23.4528 6.2896 23.8391 6.4911 24.2309 C 6.3412 23.8909 6.1595 23.4843 5.9376 23.0049 Z" fill="#ffffff"/>		<path d="M 8.2377 16.2758 C 7.9364 14.5485 8.8956 11.746 8.8956 11.746 C 8.8956 11.746 8.6145 14.6866 8.7964 15.8755 C 8.912 16.6444 9.3932 17.6786 9.5109 17.9227 C 9.7943 17.8545 11.0134 17.5681 11.7709 17.4207 C 12.6327 17.2528 14.6119 16.3795 14.6119 16.3795 C 14.6119 16.3795 12.4406 17.8503 10.7302 18.3654 C 10.2238 18.5172 9.8212 18.6512 9.5049 18.7637 C 9.9821 18.6314 10.5456 18.5048 10.8792 18.5318 C 11.5391 18.5862 12.5792 19.3279 13.9849 18.5521 C 15.2527 17.8537 15.975 15.9144 17.2167 14.7961 C 17.2167 14.7961 15.5402 15.119 14.5819 15.0303 C 13.6559 14.9443 12.4521 14.5793 11.7502 15.2535 C 11.1561 15.827 10.4719 16.6467 9.8976 17.3753 C 11.015 15.5767 11.1132 14.2484 11.0372 13.5547 C 10.9436 12.7013 9.836 11.4906 9.3932 10.4811 C 9.0097 9.6051 8.6799 8.0125 8.6799 8.0125 C 7.7049 10.1767 6.4309 10.8026 6.3601 12.8043 C 6.2839 14.9581 7.4232 15.3499 8.0425 16.4 C 8.2283 16.714 8.3557 17.1281 8.4439 17.5367 C 8.3904 17.1879 8.3237 16.7702 8.2377 16.2758 Z" fill="#ffffff"/>		<path d="M 11.861 10.7234 C 12.009 9.0645 13.5795 6.7281 13.5795 6.7281 C 13.5795 6.7281 12.5981 9.358 12.4724 10.4934 C 12.3892 11.2273 12.5767 12.294 12.6245 12.5479 C 12.9005 12.5553 14.0905 12.5911 14.8219 12.6414 C 15.6533 12.7003 17.6846 12.3843 17.6846 12.3843 C 17.6846 12.3843 15.3314 13.2014 13.6345 13.2528 C 13.1315 13.2686 12.7301 13.2927 12.413 13.3182 C 12.8823 13.314 13.4305 13.3357 13.7304 13.4427 C 14.3226 13.6549 15.0938 14.5911 16.5744 14.2252 C 17.9105 13.8955 19.0504 12.294 20.4642 11.5724 C 20.4642 11.5724 18.847 11.4568 17.9893 11.1393 C 17.1604 10.8328 16.1467 10.202 15.3358 10.6492 C 14.65 11.0285 13.8201 11.6123 13.1138 12.1409 C 14.5819 10.7637 14.9991 9.5699 15.1 8.9149 C 15.2235 8.1082 14.5049 6.7248 14.3468 5.6905 C 14.2112 4.7917 14.3 3.2488 14.3 3.2488 C 12.8724 4.9952 11.5502 5.2562 10.9929 7.076 C 10.3931 9.0344 11.3419 9.6737 11.6514 10.7891 C 11.7445 11.1235 11.7599 11.5343 11.7397 11.9312 C 11.777 11.5986 11.819 11.1987 11.861 10.7234 Z" fill="#ffffff"/>		<path d="M 16.4207 6.5673 C 16.9661 5.0815 18.9805 3.3232 18.9805 3.3232 C 18.9805 3.3232 17.4329 5.4949 17.0376 6.506 C 16.7821 7.1592 16.6923 8.1846 16.6734 8.4288 C 16.9244 8.5033 18.0079 8.829 18.6664 9.0558 C 19.4151 9.3126 21.3572 9.5226 21.3572 9.5226 C 21.3572 9.5226 18.9958 9.6937 17.4262 9.3245 C 16.9612 9.2149 16.5864 9.1386 16.2884 9.0834 C 16.7209 9.1953 17.2185 9.3501 17.4679 9.5223 C 17.9588 9.8622 18.4361 10.9105 19.8851 10.9388 C 21.192 10.9645 22.6321 9.775 24.1076 9.4608 C 24.1076 9.4608 22.6511 8.9564 21.9419 8.4552 C 21.2571 7.9699 20.4818 7.1415 19.6279 7.3527 C 18.905 7.5333 17.9998 7.864 17.2223 8.1753 C 18.9076 7.2732 19.5842 6.2794 19.8382 5.7033 C 20.1505 4.994 19.8306 3.5479 19.9408 2.5599 C 20.0367 1.7019 20.4979 0.3085 20.4979 0.3085 C 18.7585 1.5598 17.4807 1.4744 16.5215 3.0068 C 15.4895 4.6563 16.2035 5.4766 16.213 6.5762 C 16.2158 6.9052 16.129 7.2865 16.0119 7.6461 C 16.129 7.3494 16.2654 6.9928 16.4207 6.5673 Z" fill="#ffffff"/>		<path d="M 21.0786 6.5034 C 21.2927 6.3535 22.2141 5.7025 22.7656 5.2797 C 23.3926 4.7985 25.1641 3.9851 25.1641 3.9851 C 25.1641 3.9851 22.8751 4.571 21.5066 5.4177 C 21.1016 5.668 20.7716 5.8596 20.5071 6.0051 C 20.8812 5.7628 21.2278 5.3234 21.4091 5.0815 C 21.7657 4.6047 21.9606 3.5968 23.322 3.1113 C 24.5511 2.673 26.2902 3.3429 27.7866 3.1726 C 27.7866 3.1726 26.6273 4.0402 25.998 4.709 C 25.424 5.319 25.0505 6.3438 24.2158 6.5862 C 23.3215 6.8452 22.5055 6.4122 21.0786 6.5034 Z" fill="#ffffff"/>	</g></svg>