<?xml version="1.0" standalone="no"?><!-- Generator: Adobe Fireworks CS5.1, Export SVG Extension by Aaron Beall (http://fireworks.abeall.com) . Version: 0.6.1  --><!DOCTYPE svg PUBLIC "-//W3C//DTD SVG 1.1//EN" "http://www.w3.org/Graphics/SVG/1.1/DTD/svg11.dtd"><svg id="Untitled-Page%201" viewBox="0 0 44 70" style="background-color:#ffffff00" version="1.1"	xmlns="http://www.w3.org/2000/svg" xmlns:xlink="http://www.w3.org/1999/xlink" xml:space="preserve"	x="0px" y="0px" width="44px" height="70px">	<g id="Layer%201">		<path d="M 22.0002 15.3314 C 17.4512 15.3314 13.7656 19.0756 13.7656 23.6965 C 13.7656 28.3181 17.4512 32.0616 22.0002 32.0616 C 26.5456 32.0616 30.2289 28.3181 30.2289 23.6965 C 30.2289 19.0756 26.5456 15.3314 22.0002 15.3314 ZM 22.3903 0.0118 C 22.3903 0.0073 22.3903 0.0027 22.3903 0.0005 C 22.2557 -0.0019 22.1302 0.005 22.0002 0.0073 C 21.8679 0.005 21.7424 -0.0019 21.61 0.0005 C 21.61 0.0027 21.61 0.0073 21.61 0.0118 C 3.153 0.283 -0.3308 16.2634 0.0236 21.9987 C 0.379 28.1813 3.7797 35.9995 10.4019 45.0916 C 15.3578 51.8979 18.3762 56.2363 18.4166 62.2855 L 18.4166 66.3766 C 18.4166 68.3796 20.011 70 21.9822 70 C 21.9868 70 21.9911 70 22.0002 70 C 22.0069 70 22.0114 70 22.0181 70 C 23.987 70 25.5836 68.3796 25.5836 66.3766 L 25.5836 62.2855 C 25.3235 58.2895 28.6402 51.8979 33.5983 45.0916 C 40.2171 35.9995 43.6178 28.1813 43.9767 21.9987 C 44.3287 16.2634 40.8417 0.283 22.3903 0.0118 Z" fill="#f15f48"/>	</g></svg>