<?xml version="1.0" standalone="no"?><!-- Generator: Adobe Fireworks CS5.1, Export SVG Extension by Aaron Beall (http://fireworks.abeall.com) . Version: 0.6.1  --><!DOCTYPE svg PUBLIC "-//W3C//DTD SVG 1.1//EN" "http://www.w3.org/Graphics/SVG/1.1/DTD/svg11.dtd"><svg id="Untitled-Page%201" viewBox="0 0 24 27" style="background-color:#ffffff00" version="1.1"	xmlns="http://www.w3.org/2000/svg" xmlns:xlink="http://www.w3.org/1999/xlink" xml:space="preserve"	x="0px" y="0px" width="24px" height="27px">	<defs>		<filter id="filter1" x="-100%" y="-100%" width="300%" height="300%">			<!-- Drop Shadow -->			<feOffset result="out" in="SourceGraphic" dx="2.1213" dy="2.1213"/>			<feColorMatrix result="out" in="out" type="matrix" values="0 0 0 0 0  0 0 0 0 0  0 0 0 0 0  0 0 0 0.149 0"/>			<feGaussianBlur result="out" in="out" stdDeviation="0"/>			<feBlend in="SourceGraphic" in2="out" mode="normal" result="Drop_Shadow1"/>		</filter>	</defs>	<g id="Layer%201">		<path filter="url(#filter1)" d="M 10.6136 15.0201 C 14.6528 15.0201 17.9276 11.7477 17.9276 7.7122 C 17.9276 3.6766 14.6528 0.4049 10.6136 0.4049 C 6.5745 0.4049 3.3 3.6766 3.3 7.7122 C 3.3 11.7477 6.5745 15.0201 10.6136 15.0201 ZM 14.4337 15.6649 C 13.3188 16.3517 12.0192 16.7675 10.6136 16.7675 C 9.2077 16.7675 7.908 16.3517 6.7936 15.6649 C 2.8614 16.8544 0 20.2562 0 24.3146 C 0 24.3967 0.0236 24.4718 0.0264 24.5532 L 21.2009 24.5532 C 21.2028 24.4718 21.2272 24.3967 21.2272 24.3146 C 21.2272 20.2562 18.3654 16.8544 14.4337 15.6649 Z" fill="#ffffff"/>	</g></svg>