<?xml version="1.0" standalone="no"?><!-- Generator: Adobe Fireworks CS5.1, Export SVG Extension by Aaron Beall (http://fireworks.abeall.com) . Version: 0.6.1  --><!DOCTYPE svg PUBLIC "-//W3C//DTD SVG 1.1//EN" "http://www.w3.org/Graphics/SVG/1.1/DTD/svg11.dtd"><svg id="Untitled-Page%201" viewBox="0 0 44 47" style="background-color:#ffffff00" version="1.1"	xmlns="http://www.w3.org/2000/svg" xmlns:xlink="http://www.w3.org/1999/xlink" xml:space="preserve"	x="0px" y="0px" width="44px" height="47px">	<path d="M 10.7631 20.7172 L 17.4762 25.0886 C 18.3925 25.6844 19.1184 25.1687 19.088 23.9255 L 18.9277 18.0134 C 21.7242 17.1837 24.75 16.6097 27.5718 16.4879 C 31.9327 16.3291 36.4429 17.2649 39.238 21.1923 C 38.6531 16.272 33.8238 12.0038 28.6351 9.9701 C 25.3738 8.6576 22.1005 7.7551 18.645 7.2211 L 18.4885 1.3672 C 18.4581 0.1342 17.7067 -0.3588 16.8207 0.2798 L 10.3467 4.9424 C 9.4632 5.5797 8.0104 6.6217 7.1232 7.2566 L 0.6467 11.9231 C -0.2368 12.5577 -0.2137 13.575 0.7075 14.173 L 7.4156 18.5408 C 8.3405 19.1401 9.8467 20.1185 10.7631 20.7172 ZM 43.2955 32.8296 L 36.5825 28.4615 C 35.6636 27.8595 34.1563 26.8833 33.2363 26.2862 L 26.5256 21.9093 C 25.608 21.3163 24.8823 21.8327 24.915 23.0742 L 25.0728 28.986 C 22.2776 29.8197 19.2518 30.3936 16.43 30.5137 C 12.0703 30.6721 7.5565 29.7402 4.7589 25.8055 C 5.3463 30.7251 10.1781 34.998 15.3642 37.0326 C 18.6268 38.3442 21.899 39.2446 25.3544 39.7808 L 25.5061 45.6322 C 25.5414 46.8685 26.2937 47.3571 27.1811 46.7209 L 33.6537 42.0583 C 34.5397 41.4225 35.9902 40.3806 36.8821 39.7441 L 43.3501 35.0833 C 44.2399 34.4455 44.2106 33.4286 43.2955 32.8296 Z" fill="#ffffff"/></svg>