<?xml version="1.0" standalone="no"?><!-- Generator: Adobe Fireworks CS5.1, Export SVG Extension by Aaron Beall (http://fireworks.abeall.com) . Version: 0.6.1  --><!DOCTYPE svg PUBLIC "-//W3C//DTD SVG 1.1//EN" "http://www.w3.org/Graphics/SVG/1.1/DTD/svg11.dtd"><svg id="Untitled-Page%201" viewBox="0 0 27 27" style="background-color:#ffffff00" version="1.1"	xmlns="http://www.w3.org/2000/svg" xmlns:xlink="http://www.w3.org/1999/xlink" xml:space="preserve"	x="0px" y="0px" width="27px" height="27px">	<path d="M 26.5729 15.6127 C 26.6978 14.5371 26.7866 14.161 26.7866 13.4258 C 26.7866 6.3079 20.9544 0.5 13.7848 0.5 C 6.6152 0.5 0.7866 6.2788 0.7866 13.3982 C 0.7866 20.5129 6.2083 26.2939 13.7927 26.2939 L 13.7927 26.2919 C 15.9597 26.2855 18.68 25.6007 20.8671 24.1829 L 20.93 24.1407 L 22.5304 26.3412 C 22.706 26.5818 22.922 26.5438 23.0098 26.2622 L 25.3995 19.3792 C 25.4884 19.0966 25.3159 18.8624 25.0175 18.8561 L 17.6119 18.8582 C 17.3125 18.8518 17.2108 19.0449 17.3844 19.2834 L 19.0228 21.5211 C 17.4029 22.5548 15.9597 23.0525 13.7927 23.0598 L 13.7927 23.0684 C 8.3752 23.0673 4.0349 18.7336 4.037 13.3876 C 4.037 8.0413 8.4022 3.7076 13.7879 3.7076 C 19.1726 3.7076 23.5378 8.0789 23.5378 13.4258 C 23.5378 14.1653 23.4389 14.5371 23.278 15.6127 L 26.5729 15.6127 Z" fill="#cccccc"/></svg>