<?xml version="1.0" standalone="no"?><!-- Generator: Adobe Fireworks CS5.1, Export SVG Extension by Aaron Beall (http://fireworks.abeall.com) . Version: 0.6.1  --><!DOCTYPE svg PUBLIC "-//W3C//DTD SVG 1.1//EN" "http://www.w3.org/Graphics/SVG/1.1/DTD/svg11.dtd"><svg id="Untitled-Page%201" viewBox="0 0 35 68" style="background-color:#ffffff00" version="1.1"	xmlns="http://www.w3.org/2000/svg" xmlns:xlink="http://www.w3.org/1999/xlink" xml:space="preserve"	x="0px" y="0px" width="35px" height="68px">	<g id="Layer%201">		<path d="M 3.1024 63.9462 C 5.3811 65.002 9.6149 64.7155 9.6149 64.7155 C 9.6149 64.7155 5.4418 64.014 3.8627 63.3229 C 2.8435 62.8773 1.5906 61.8282 1.2959 61.5753 C 1.4937 61.2098 2.3437 59.6295 2.8281 58.6371 C 3.3794 57.5093 5.3217 55.0957 5.3217 55.0957 C 5.3217 55.0957 2.4816 57.5517 1.1355 59.7249 C 0.7365 60.3706 0.4016 60.8765 0.1294 61.2709 C 0.4891 60.6608 0.8738 59.9296 0.9598 59.4576 C 1.1294 58.5243 0.4886 56.8128 2.0814 55.1569 C 3.5196 53.662 6.4706 53.3829 8.4771 52.0806 C 8.4771 52.0806 7.4099 54.2784 7.1774 55.637 C 6.9536 56.9483 7.0137 58.7478 5.8183 59.4673 C 4.8051 60.0776 3.418 60.7202 2.1961 61.2441 C 5.1002 60.365 6.975 60.7219 7.9057 61.0836 C 9.0522 61.5293 10.3174 63.5101 11.5493 64.4952 C 12.621 65.3514 14.7024 66.3967 14.7024 66.3967 C 11.3464 66.9436 10.0081 68.4718 7.2117 67.8285 C 4.2026 67.1346 4.0815 65.4143 2.8584 64.1698 C 2.4931 63.7975 1.9664 63.467 1.4335 63.1934 C 1.8963 63.3956 2.4501 63.6448 3.1024 63.9462 Z" fill="#ffffff"/>		<path d="M 12.2567 59.6678 C 14.6068 60.0765 18.4221 58.7725 18.4221 58.7725 C 18.4221 58.7725 14.4197 59.1544 12.801 58.9087 C 11.7558 58.7501 10.3486 58.0953 10.0156 57.9358 C 10.1063 57.5513 10.4979 55.8926 10.6995 54.8628 C 10.9267 53.6924 12.1157 51.0002 12.1157 51.0002 C 12.1157 51.0002 10.114 53.9518 9.4131 56.2775 C 9.2059 56.967 9.0236 57.5139 8.8701 57.9429 C 9.0501 57.295 9.223 56.529 9.1857 56.075 C 9.1118 55.1772 8.1028 53.7641 9.1575 51.8527 C 10.1091 50.1283 12.7488 49.146 14.2698 47.4586 C 14.2698 47.4586 13.8303 49.7379 13.951 51.0414 C 14.0688 52.2997 14.5663 53.9359 13.6469 54.8896 C 12.8672 55.6989 11.752 56.6293 10.7596 57.4103 C 13.2087 55.8898 15.017 55.7571 15.9597 55.8602 C 17.1218 55.9872 18.7697 57.4939 20.1426 58.0948 C 21.3362 58.6174 23.5037 59.0652 23.5037 59.0652 C 20.5588 60.3915 19.7064 62.1234 16.9818 62.2197 C 14.0507 62.3238 13.5157 60.7744 12.0875 59.9327 C 11.6606 59.6801 11.0963 59.5065 10.5394 59.3867 C 11.0142 59.4586 11.5839 59.5502 12.2567 59.6678 Z" fill="#ffffff"/>		<path d="M 19.666 53.6467 C 21.9235 53.4442 25.1036 51.3101 25.1036 51.3101 C 25.1036 51.3101 21.525 52.6445 19.9791 52.8168 C 18.9812 52.928 17.5283 52.6731 17.184 52.6081 C 17.1735 52.2331 17.1238 50.6151 17.0551 49.6205 C 16.9763 48.4902 17.4055 45.7278 17.4055 45.7278 C 17.4055 45.7278 16.2938 48.9284 16.2231 51.2337 C 16.2021 51.9186 16.1697 52.465 16.1344 52.8964 C 16.14 52.2574 16.1106 51.5119 15.9648 51.1042 C 15.676 50.2991 14.4023 49.2501 14.8996 47.2368 C 15.3493 45.4206 17.5295 43.8704 18.5103 41.9484 C 18.5103 41.9484 18.6674 44.1478 19.0996 45.3148 C 19.5168 46.4399 20.3756 47.8193 19.7671 48.9208 C 19.2505 49.8549 18.4561 50.9827 17.7378 51.9429 C 19.61 49.9466 21.2369 49.3801 22.1279 49.2424 C 23.2253 49.0734 25.1085 50.0508 26.5162 50.2656 C 27.7395 50.451 29.8386 50.3297 29.8386 50.3297 C 27.4625 52.2706 27.1063 54.0685 24.6304 54.8275 C 21.9657 55.6426 21.0947 54.3527 19.5762 53.9305 C 19.1222 53.8053 18.562 53.784 18.0215 53.8108 C 18.475 53.7603 19.0193 53.704 19.666 53.6467 Z" fill="#ffffff"/>		<path d="M 25.0779 46.4069 C 27.0997 45.6668 29.493 42.9269 29.493 42.9269 C 29.493 42.9269 26.5372 45.0306 25.1605 45.5685 C 24.2728 45.916 22.8761 46.0391 22.5438 46.0639 C 22.442 45.7227 21.9989 44.2498 21.6914 43.3544 C 21.341 42.3365 21.055 39.696 21.055 39.696 C 21.055 39.696 20.8231 42.9061 21.3246 45.0397 C 21.4744 45.6725 21.5789 46.1823 21.6528 46.5864 C 21.5004 45.9988 21.2904 45.3224 21.0561 44.9844 C 20.5928 44.3157 19.1669 43.6666 19.1273 41.6968 C 19.0925 39.9196 20.7123 37.9614 21.1395 35.9564 C 21.1395 35.9564 21.8253 37.936 22.508 38.9002 C 23.168 39.8313 24.2953 40.886 24.0073 42.0453 C 23.7632 43.0294 23.3113 44.2598 22.8892 45.3175 C 24.1163 43.0251 25.469 42.1049 26.2524 41.7607 C 27.2189 41.3361 29.1869 41.7709 30.5319 41.6207 C 31.6998 41.4907 33.5967 40.8636 33.5967 40.8636 C 31.8932 43.2283 32.0094 44.9662 29.9235 46.2706 C 27.6788 47.6733 26.5625 46.7035 25.0656 46.69 C 24.6176 46.6862 24.0986 46.8045 23.6093 46.962 C 24.0126 46.8045 24.4992 46.6185 25.0779 46.4069 Z" fill="#ffffff"/>		<path d="M 28.3928 38.5297 C 30.066 37.3538 31.5878 34.2512 31.5878 34.2512 C 31.5878 34.2512 29.3935 36.9084 28.2623 37.7399 C 27.5328 38.2773 26.2816 38.733 25.9834 38.8376 C 25.8061 38.5493 25.0369 37.3071 24.5345 36.5605 C 23.9625 35.713 23.0505 33.3604 23.0505 33.3604 C 23.0505 33.3604 23.6269 36.3628 24.6128 38.1976 C 24.9056 38.7411 25.1267 39.1832 25.2938 39.5363 C 25.01 39.0342 24.6506 38.4647 24.3521 38.2125 C 23.763 37.7137 22.2942 37.468 21.7747 35.6699 C 21.3047 34.0476 22.309 31.8529 22.2082 29.9075 C 22.2082 29.9075 23.3245 31.5561 24.1879 32.2728 C 25.0236 32.9648 26.3167 33.656 26.3384 34.7905 C 26.3561 35.7531 26.244 36.9934 26.1161 38.0677 C 26.679 35.6629 27.6937 34.4865 28.3289 33.9777 C 29.1098 33.3504 31.0233 33.265 32.2204 32.7974 C 33.2603 32.3911 34.8458 31.3492 34.8458 31.3492 C 33.865 33.9376 34.3989 35.504 32.8057 37.2134 C 31.0905 39.0518 29.8281 38.4372 28.4509 38.7928 C 28.039 38.8987 27.5924 39.1349 27.1818 39.4003 C 27.5137 39.1563 27.9135 38.8662 28.3928 38.5297 Z" fill="#ffffff"/>		<path d="M 29.653 30.5643 C 30.8987 29.0742 31.5318 25.8527 31.5318 25.8527 C 31.5318 25.8527 30.1714 28.8303 29.339 29.8716 C 28.8016 30.5435 27.7659 31.27 27.517 31.439 C 27.2839 31.2175 26.2727 30.267 25.6276 29.7052 C 24.8942 29.0683 23.4788 27.1336 23.4788 27.1336 C 23.4788 27.1336 24.746 29.7472 26.1021 31.188 C 26.5047 31.6156 26.816 31.967 27.0568 32.2495 C 26.6729 31.8581 26.2024 31.4247 25.8667 31.2661 C 25.2034 30.9526 23.7949 31.0887 22.8761 29.5667 C 22.0463 28.1931 22.4274 25.9327 21.8557 24.1721 C 21.8557 24.1721 23.2859 25.4105 24.2557 25.8568 C 25.1911 26.286 26.5487 26.6021 26.848 27.6386 C 27.1007 28.5167 27.303 29.6827 27.4501 30.6998 C 27.3748 28.3549 28.016 27.0257 28.4739 26.4028 C 29.0375 25.6356 30.7715 25.0871 31.7543 24.3636 C 32.609 23.7349 33.8082 22.3895 33.8082 22.3895 C 33.5444 25.0055 34.4199 26.3118 33.3787 28.272 C 32.2578 30.381 30.947 30.126 29.7709 30.7913 C 29.4183 30.99 29.0668 31.3167 28.756 31.6599 C 29.0001 31.3555 29.2958 30.9908 29.653 30.5643 Z" fill="#ffffff"/>		<path d="M 29.0093 23.0049 C 29.7862 21.3306 29.5751 18.2195 29.5751 18.2195 C 29.5751 18.2195 29.0589 21.2864 28.5511 22.4462 C 28.2232 23.1956 27.4517 24.1154 27.265 24.3322 C 26.9966 24.1861 25.8342 23.5623 25.1047 23.2055 C 24.2754 22.8015 22.4999 21.3738 22.4999 21.3738 C 22.4999 21.3738 24.3063 23.4609 25.9048 24.4505 C 26.3792 24.7429 26.7516 24.9888 27.0419 25.1891 C 26.5935 24.9246 26.0553 24.6426 25.7087 24.5794 C 25.0221 24.4549 23.7632 24.9253 22.5456 23.7549 C 21.4462 22.6984 21.2402 20.5306 20.2828 19.0549 C 20.2828 19.0549 21.8997 19.8401 22.8987 20.0106 C 23.8635 20.1753 25.1858 20.1316 25.7158 21.0086 C 26.1637 21.7534 26.6364 22.7728 27.0215 23.6703 C 26.3758 21.5373 26.6375 20.1595 26.9037 19.4755 C 27.2314 18.6333 28.6888 17.7039 29.4132 16.7984 C 30.0425 16.0118 30.8112 14.4823 30.8112 14.4823 C 31.2133 16.9479 32.3378 17.9315 31.8646 19.9855 C 31.3548 22.1962 30.0893 22.2852 29.1735 23.1841 C 28.8998 23.4528 28.6573 23.8391 28.4557 24.2309 C 28.6056 23.8909 28.7873 23.4843 29.0093 23.0049 Z" fill="#ffffff"/>		<path d="M 26.7091 16.2758 C 27.0104 14.5485 26.0512 11.746 26.0512 11.746 C 26.0512 11.746 26.3323 14.6866 26.1504 15.8755 C 26.0349 16.6444 25.5536 17.6786 25.436 17.9227 C 25.1525 17.8545 23.9334 17.5681 23.1759 17.4207 C 22.3141 17.2528 20.3349 16.3795 20.3349 16.3795 C 20.3349 16.3795 22.5062 17.8503 24.2166 18.3654 C 24.723 18.5172 25.1256 18.6512 25.4419 18.7637 C 24.9648 18.6314 24.4012 18.5048 24.0676 18.5318 C 23.4077 18.5862 22.3676 19.3279 20.9619 18.5521 C 19.6942 17.8537 18.9718 15.9144 17.7301 14.7961 C 17.7301 14.7961 19.4066 15.119 20.3649 15.0303 C 21.2909 14.9443 22.4947 14.5793 23.1966 15.2535 C 23.7906 15.827 24.4749 16.6467 25.0492 17.3753 C 23.9318 15.5767 23.8336 14.2484 23.9096 13.5547 C 24.0032 12.7013 25.1108 11.4906 25.5536 10.4811 C 25.9371 9.6051 26.2668 8.0125 26.2668 8.0125 C 27.2419 10.1767 28.5159 10.8026 28.5867 12.8043 C 28.663 14.9581 27.5236 15.3499 26.9043 16.4 C 26.7185 16.714 26.5912 17.1281 26.5029 17.5367 C 26.5564 17.1879 26.6231 16.7702 26.7091 16.2758 Z" fill="#ffffff"/>		<path d="M 23.0859 10.7234 C 22.9377 9.0645 21.3674 6.7281 21.3674 6.7281 C 21.3674 6.7281 22.3486 9.358 22.4745 10.4934 C 22.5576 11.2273 22.3702 12.294 22.3223 12.5479 C 22.0463 12.5553 20.8563 12.5911 20.1249 12.6414 C 19.2936 12.7003 17.2622 12.3843 17.2622 12.3843 C 17.2622 12.3843 19.6154 13.2014 21.3124 13.2528 C 21.8153 13.2686 22.2167 13.2927 22.5338 13.3182 C 22.0645 13.314 21.5163 13.3357 21.2164 13.4427 C 20.6243 13.6549 19.853 14.5911 18.3724 14.2252 C 17.0363 13.8955 15.8965 12.294 14.4827 11.5724 C 14.4827 11.5724 16.0998 11.4568 16.9576 11.1393 C 17.7864 10.8328 18.8001 10.202 19.6111 10.6492 C 20.2968 11.0285 21.1267 11.6123 21.8329 12.1409 C 20.3649 10.7637 19.9476 9.5699 19.8468 8.9149 C 19.7233 8.1082 20.4419 6.7248 20.6 5.6905 C 20.7356 4.7917 20.6468 3.2488 20.6468 3.2488 C 22.0744 4.9952 23.3967 5.2562 23.9539 7.076 C 24.5537 9.0344 23.6049 9.6737 23.2954 10.7891 C 23.2023 11.1235 23.187 11.5343 23.2072 11.9312 C 23.1698 11.5986 23.1278 11.1987 23.0859 10.7234 Z" fill="#ffffff"/>		<path d="M 18.5261 6.5673 C 17.9808 5.0815 15.9663 3.3232 15.9663 3.3232 C 15.9663 3.3232 17.5139 5.4949 17.9092 6.506 C 18.1647 7.1592 18.2545 8.1846 18.2734 8.4288 C 18.0225 8.5033 16.9389 8.829 16.2805 9.0558 C 15.5317 9.3126 13.5897 9.5226 13.5897 9.5226 C 13.5897 9.5226 15.951 9.6937 17.5206 9.3245 C 17.9856 9.2149 18.3604 9.1386 18.6584 9.0834 C 18.2258 9.1953 17.7283 9.3501 17.4789 9.5223 C 16.988 9.8622 16.5107 10.9105 15.0618 10.9388 C 13.7549 10.9645 12.3147 9.775 10.8392 9.4608 C 10.8392 9.4608 12.2958 8.9564 13.0049 8.4552 C 13.6897 7.9699 14.465 7.1415 15.3188 7.3527 C 16.0418 7.5333 16.947 7.864 17.7245 8.1753 C 16.0392 7.2732 15.3626 6.2794 15.1086 5.7033 C 14.7963 4.994 15.1163 3.5479 15.006 2.5599 C 14.9102 1.7019 14.4489 0.3085 14.4489 0.3085 C 16.1884 1.5598 17.4661 1.4744 18.4254 3.0068 C 19.4573 4.6563 18.7433 5.4766 18.7338 6.5762 C 18.7311 6.9052 18.8177 7.2865 18.9349 7.6461 C 18.8177 7.3494 18.6815 6.9928 18.5261 6.5673 Z" fill="#ffffff"/>		<path d="M 13.8682 6.5034 C 13.6541 6.3535 12.7327 5.7025 12.1812 5.2797 C 11.5542 4.7985 9.7827 3.9851 9.7827 3.9851 C 9.7827 3.9851 12.0717 4.571 13.4402 5.4177 C 13.8452 5.668 14.1752 5.8596 14.4397 6.0051 C 14.0657 5.7628 13.7191 5.3234 13.5377 5.0815 C 13.1812 4.6047 12.9861 3.5968 11.6248 3.1113 C 10.3957 2.673 8.6566 3.3429 7.1603 3.1726 C 7.1603 3.1726 8.3195 4.0402 8.9489 4.709 C 9.5228 5.319 9.8963 6.3438 10.731 6.5862 C 11.6253 6.8452 12.4413 6.4122 13.8682 6.5034 Z" fill="#ffffff"/>	</g></svg>