<?xml version="1.0" standalone="no"?><!-- Generator: Adobe Fireworks CS5.1, Export SVG Extension by Aaron Beall (http://fireworks.abeall.com) . Version: 0.6.1  --><!DOCTYPE svg PUBLIC "-//W3C//DTD SVG 1.1//EN" "http://www.w3.org/Graphics/SVG/1.1/DTD/svg11.dtd"><svg id="Untitled-Page%201" viewBox="0 0 38 39" style="background-color:#ffffff00" version="1.1"	xmlns="http://www.w3.org/2000/svg" xmlns:xlink="http://www.w3.org/1999/xlink" xml:space="preserve"	x="0px" y="0px" width="38px" height="39px">	<defs>		<filter id="filter1" x="-100%" y="-100%" width="300%" height="300%">			<!-- Drop Shadow -->			<feOffset result="out" in="SourceGraphic" dx="2.8284" dy="2.8284"/>			<feColorMatrix result="out" in="out" type="matrix" values="0 0 0 0 0  0 0 0 0 0  0 0 0 0 0  0 0 0 0.149 0"/>			<feGaussianBlur result="out" in="out" stdDeviation="0"/>			<feBlend in="SourceGraphic" in2="out" mode="normal" result="Drop_Shadow1"/>		</filter>	</defs>	<g id="Layer%201">		<path filter="url(#filter1)" d="M 23.0621 23.684 C 23.0621 23.684 37.7698 12.9773 35.8224 0.9128 C 35.7799 0.6492 35.6867 0.4764 35.5741 0.3615 C 35.4575 0.2522 35.2831 0.1619 35.0195 0.1256 C 23.0926 -1.5123 12.8385 13.4142 12.8385 13.4142 C 3.7328 12.3337 4.4011 14.1329 0.245 24.0885 C -0.5563 26.004 0.7448 26.6632 2.17 26.1249 C 3.5929 25.5876 6.7316 24.4026 6.7316 24.4026 L 12.2787 30.0405 C 12.2787 30.0405 11.1388 33.28 10.621 34.7524 C 10.1018 36.2283 10.7602 37.5767 12.6446 36.7458 C 22.4815 32.4106 24.291 33.0994 23.0621 23.684 ZM 24.9899 11.261 C 23.7111 9.9882 23.6775 7.9303 24.9117 6.663 C 26.1434 5.3986 28.1757 5.3986 29.4552 6.663 C 30.7369 7.9294 30.7805 9.9882 29.5486 11.261 C 28.3145 12.5364 26.2723 12.5364 24.9899 11.261 Z" fill="#ffffff"/>	</g></svg>