<?xml version="1.0" standalone="no"?><!-- Generator: Adobe Fireworks CS5.1, Export SVG Extension by Aaron Beall (http://fireworks.abeall.com) . Version: 0.6.1  --><!DOCTYPE svg PUBLIC "-//W3C//DTD SVG 1.1//EN" "http://www.w3.org/Graphics/SVG/1.1/DTD/svg11.dtd"><svg id="Untitled-Page%201" viewBox="0 0 20 25" style="background-color:#ffffff00" version="1.1"	xmlns="http://www.w3.org/2000/svg" xmlns:xlink="http://www.w3.org/1999/xlink" xml:space="preserve"	x="0px" y="0px" width="20px" height="25px">	<path d="M 13.9533 7.7885 C 13.9533 3.9571 10.8448 0.8512 7.0103 0.8512 C 3.1757 0.8512 0.0672 3.9571 0.0672 7.7885 C 0.0672 11.6191 3.1757 14.7257 7.0103 14.7257 C 10.8448 14.7257 13.9533 11.6191 13.9533 7.7885 ZM 19.6143 21.7728 L 14.4506 14.6192 C 13.792 13.7077 12.5183 13.5017 11.6057 14.1597 C 10.693 14.8167 10.4869 16.0895 11.1454 17.001 L 16.3096 24.1546 C 16.9681 25.0665 18.2419 25.2733 19.1545 24.6149 C 20.0671 23.9573 20.2732 22.6855 19.6143 21.7728 Z" fill="#ffffff"/></svg>