<?xml version="1.0" standalone="no"?><!-- Generator: Adobe Fireworks CS5.1, Export SVG Extension by Aaron Beall (http://fireworks.abeall.com) . Version: 0.6.1  --><!DOCTYPE svg PUBLIC "-//W3C//DTD SVG 1.1//EN" "http://www.w3.org/Graphics/SVG/1.1/DTD/svg11.dtd"><svg id="Untitled-Page%201" viewBox="0 0 48 48" style="background-color:#ffffff00" version="1.1"	xmlns="http://www.w3.org/2000/svg" xmlns:xlink="http://www.w3.org/1999/xlink" xml:space="preserve"	x="0px" y="0px" width="48px" height="48px">	<defs>		<filter id="filter1" x="-100%" y="-100%" width="300%" height="300%">			<!-- Drop Shadow -->			<feOffset result="out" in="SourceGraphic" dx="4.2426" dy="4.2426"/>			<feColorMatrix result="out" in="out" type="matrix" values="0 0 0 0 0  0 0 0 0 0  0 0 0 0 0  0 0 0 0.149 0"/>			<feGaussianBlur result="out" in="out" stdDeviation="0"/>			<feBlend in="SourceGraphic" in2="out" mode="normal" result="Drop_Shadow1"/>		</filter>	</defs>	<g id="Layer%201">		<path opacity="0.8" filter="url(#filter1)" d="M 43.0613 28.4582 L 44 23.1287 L 38.7097 22.1962 C 38.7642 20.0592 38.4087 17.9824 37.7092 16.0518 L 42.2828 13.412 L 39.5768 8.7269 L 35.0569 11.3351 C 34.0486 10.0561 32.8782 8.903 31.5303 7.955 L 33.6887 3.3301 L 28.7832 1.0427 L 26.6582 5.6031 C 26.042 5.4198 25.4171 5.2579 24.7706 5.1448 C 23.7472 4.9643 22.7296 4.897 21.7291 4.9027 L 20.8641 0 L 15.5356 0.9396 L 16.3928 5.7936 C 14.7932 6.3406 13.2913 7.1213 11.9338 8.1068 L 8.4546 4.6277 L 4.6267 8.4534 L 8.1284 11.9539 C 7.168 13.2931 6.3826 14.7812 5.8394 16.4011 L 0.9387 15.5361 L 0 20.8643 L 4.9551 21.7379 C 4.9449 23.9336 5.3722 26.0591 6.1554 28.0214 L 1.7085 30.588 L 4.4138 35.2729 L 8.9568 32.6519 C 9.993 33.8795 11.1814 34.9794 12.54 35.8789 L 10.3042 40.6699 L 15.2068 42.9586 L 17.4694 38.1046 C 17.9395 38.2307 18.4167 38.3395 18.9011 38.4255 C 20.0071 38.6203 21.1071 38.6948 22.1892 38.6719 L 23.1274 44 L 28.4585 43.0604 L 27.5096 37.6864 C 28.9968 37.1508 30.4021 36.4189 31.6779 35.5022 L 35.5477 39.3708 L 39.3733 35.5452 L 35.5076 31.6794 C 36.4192 30.4189 37.1731 29.0254 37.715 27.5143 L 43.0613 28.4582 ZM 22.0159 16.9038 C 19.281 16.9038 17.0637 19.1196 17.0637 21.8525 C 17.0637 24.5837 19.281 26.7982 22.0159 26.7982 C 24.749 26.7982 26.968 24.5837 26.968 21.8525 C 26.968 19.1196 24.749 16.9038 22.0159 16.9038 Z" fill="#ffffff"/>	</g></svg>