<?xml version="1.0" standalone="no"?><!-- Generator: Adobe Fireworks CS5.1, Export SVG Extension by Aaron Beall (http://fireworks.abeall.com) . Version: 0.6.1  --><!DOCTYPE svg PUBLIC "-//W3C//DTD SVG 1.1//EN" "http://www.w3.org/Graphics/SVG/1.1/DTD/svg11.dtd"><svg id="Untitled-Page%201" viewBox="0 0 41 40" style="background-color:#ffffff00" version="1.1"	xmlns="http://www.w3.org/2000/svg" xmlns:xlink="http://www.w3.org/1999/xlink" xml:space="preserve"	x="0px" y="0px" width="41px" height="40px">	<g id="Layer%201">		<path d="M 30.4492 0 L 34.2617 0 L 34.2617 3.2072 L 37.5684 3.2072 L 37.5684 0 L 40.5 0 L 40.5 40 L 37.5684 40 L 37.5684 36.8217 L 34.2617 36.8217 L 34.2617 40 L 30.7213 40 L 30.7213 33.8959 L 10.6549 33.8959 L 10.6549 40 L 6.8177 40 L 7.0938 36.8217 L 3.7891 36.8217 L 3.5124 40 L 0.5 40 L 0.5 0 L 3.7891 0 L 3.7891 3.2072 L 7.0938 3.2072 L 7.0938 0 L 10.3828 0 L 10.3828 5.8058 L 30.4492 5.8058 L 30.4492 0 ZM 37.5684 17.9332 L 37.5684 14.7019 L 34.2617 14.7019 L 34.2617 17.9332 L 37.5684 17.9332 ZM 30.5846 10.4999 L 10.5182 10.4999 L 10.5182 29.2787 L 30.5846 29.2787 L 30.5846 10.4999 ZM 37.5684 25.5815 L 37.5684 22.3497 L 34.2617 22.3497 L 34.2617 25.5815 L 37.5684 25.5815 ZM 37.5684 32.8937 L 37.5684 29.6613 L 34.2617 29.6613 L 34.2617 32.8937 L 37.5684 32.8937 ZM 3.7891 29.6613 L 3.7891 32.8937 L 7.0938 32.8937 L 7.0938 29.6613 L 3.7891 29.6613 ZM 3.7891 22.3497 L 3.7891 25.5815 L 7.0938 25.5815 L 7.0938 22.3497 L 3.7891 22.3497 ZM 3.7891 14.8055 L 3.7891 18.0375 L 7.0938 18.0375 L 7.0938 14.8055 L 3.7891 14.8055 ZM 3.7891 7.3904 L 3.7891 10.6223 L 7.0938 10.6223 L 7.0938 7.3904 L 3.7891 7.3904 ZM 34.2617 7.3904 L 34.2617 10.6223 L 37.5684 10.6223 L 37.5684 7.3904 L 34.2617 7.3904 Z" fill="#ffffff"/>	</g></svg>