<?xml version="1.0" standalone="no"?><!-- Generator: Adobe Fireworks CS5.1, Export SVG Extension by Aaron Beall (http://fireworks.abeall.com) . Version: 0.6.1  --><!DOCTYPE svg PUBLIC "-//W3C//DTD SVG 1.1//EN" "http://www.w3.org/Graphics/SVG/1.1/DTD/svg11.dtd"><svg id="Untitled-Page%201" viewBox="0 0 42 42" style="background-color:#ffffff00" version="1.1"	xmlns="http://www.w3.org/2000/svg" xmlns:xlink="http://www.w3.org/1999/xlink" xml:space="preserve"	x="0px" y="0px" width="42px" height="42px">	<defs>		<filter id="filter1" x="-100%" y="-100%" width="300%" height="300%">			<!-- Drop Shadow -->			<feOffset result="out" in="SourceGraphic" dx="2.8284" dy="2.8284"/>			<feColorMatrix result="out" in="out" type="matrix" values="0 0 0 1 0  0 0 0 1 0  0 0 0 1 0  0 0 0 1 0"/>			<feGaussianBlur result="out" in="out" stdDeviation="0"/>			<feBlend in="SourceGraphic" in2="out" mode="normal" result="Drop_Shadow1"/>		</filter>	</defs>	<g id="Layer%201">		<path filter="url(#filter1)" d="M 29.9492 0 L 33.7617 0 L 33.7617 3.2072 L 37.0684 3.2072 L 37.0684 0 L 40 0 L 40 40 L 37.0684 40 L 37.0684 36.8216 L 33.7617 36.8216 L 33.7617 40 L 30.2213 40 L 30.2213 33.8959 L 10.1549 33.8959 L 10.1549 40 L 6.3177 40 L 6.5938 36.8216 L 3.2891 36.8216 L 3.0124 40 L 0 40 L 0 0 L 3.2891 0 L 3.2891 3.2072 L 6.5938 3.2072 L 6.5938 0 L 9.8828 0 L 9.8828 5.8058 L 29.9492 5.8058 L 29.9492 0 ZM 37.0684 17.9333 L 37.0684 14.7019 L 33.7617 14.7019 L 33.7617 17.9333 L 37.0684 17.9333 ZM 30.0846 10.4998 L 10.0182 10.4998 L 10.0182 29.2787 L 30.0846 29.2787 L 30.0846 10.4998 ZM 37.0684 25.5815 L 37.0684 22.3497 L 33.7617 22.3497 L 33.7617 25.5815 L 37.0684 25.5815 ZM 37.0684 32.8937 L 37.0684 29.6613 L 33.7617 29.6613 L 33.7617 32.8937 L 37.0684 32.8937 ZM 3.2891 29.6613 L 3.2891 32.8937 L 6.5938 32.8937 L 6.5938 29.6613 L 3.2891 29.6613 ZM 3.2891 22.3497 L 3.2891 25.5815 L 6.5938 25.5815 L 6.5938 22.3497 L 3.2891 22.3497 ZM 3.2891 14.8055 L 3.2891 18.0375 L 6.5938 18.0375 L 6.5938 14.8055 L 3.2891 14.8055 ZM 3.2891 7.3904 L 3.2891 10.6223 L 6.5938 10.6223 L 6.5938 7.3904 L 3.2891 7.3904 ZM 33.7617 7.3904 L 33.7617 10.6223 L 37.0684 10.6223 L 37.0684 7.3904 L 33.7617 7.3904 Z" fill="#29313d"/>	</g></svg>