<?xml version="1.0" standalone="no"?><!-- Generator: Adobe Fireworks CS5.1, Export SVG Extension by Aaron Beall (http://fireworks.abeall.com) . Version: 0.6.1  --><!DOCTYPE svg PUBLIC "-//W3C//DTD SVG 1.1//EN" "http://www.w3.org/Graphics/SVG/1.1/DTD/svg11.dtd"><svg id="Untitled-Page%201" viewBox="0 0 24 27" style="background-color:#ffffff00" version="1.1"	xmlns="http://www.w3.org/2000/svg" xmlns:xlink="http://www.w3.org/1999/xlink" xml:space="preserve"	x="0px" y="0px" width="24px" height="27px">	<g id="Layer%201">		<path d="M 21.5494 7.8152 C 21.7957 7.6604 22.0604 7.5648 22.3287 7.5135 L 21.2048 5.7368 C 20.7383 5.0004 19.7744 4.7677 19.0483 5.2184 L 12.6516 9.1953 L 8.3649 11.8604 L 1.6542 16.0332 C 0.8676 16.5215 0.6295 17.5402 1.1246 18.3062 L 2.3177 20.1514 C 2.4967 19.9149 2.715 19.7019 2.9812 19.5344 C 4.1423 18.8011 5.6701 19.1255 6.3976 20.2543 C 7.1243 21.3817 6.7828 22.8932 5.6304 23.6351 C 5.366 23.8056 5.0807 23.9138 4.7905 23.9762 L 6.3546 26.3965 C 6.8461 27.1551 7.8696 27.3594 8.64 26.855 L 15.2146 22.5483 L 19.4152 19.7959 L 25.6823 15.6896 C 26.3934 15.2234 26.5938 14.2549 26.1316 13.5247 L 24.6577 11.1948 C 24.4977 11.4171 24.2996 11.6165 24.0564 11.7734 C 22.9906 12.4601 21.5582 12.131 20.8616 11.0335 C 20.1656 9.9365 20.4756 8.493 21.5494 7.8152 Z" fill="#5d646f"/>		<path d="M 13.2137 2.1593 C 13.3916 1.9115 13.61 1.7127 13.8489 1.555 L 12.0924 0.3011 C 11.3645 -0.2177 10.3543 -0.0494 9.8342 0.6772 L 5.3264 6.9826 L 2.3768 11.1087 L -2.1302 17.4143 C -2.6503 18.1407 -2.4818 19.1509 -1.7539 19.6705 L 0.0021 20.9236 C 0.0746 20.6457 0.1912 20.375 0.368 20.1284 C 1.1406 19.047 2.6448 18.7966 3.727 19.569 C 4.8092 20.3413 5.0598 21.8437 4.2867 22.9249 C 4.1101 23.1725 3.8916 23.3705 3.6519 23.5284 L 5.968 25.1819 C 6.6963 25.7006 7.7069 25.5323 8.2266 24.8058 L 12.7345 18.5011 L 15.6844 14.3742 L 20.1912 8.0695 C 20.7107 7.3424 20.5422 6.3321 19.8148 5.8133 L 17.4983 4.1598 C 17.4269 4.4375 17.31 4.7083 17.1333 4.9559 C 16.3611 6.0369 14.8567 6.2874 13.7734 5.5146 C 12.6921 4.7428 12.4414 3.2398 13.2137 2.1593 Z" fill="#ffffff"/>	</g></svg>