<?xml version="1.0" standalone="no"?><!-- Generator: Adobe Fireworks CS5.1, Export SVG Extension by Aaron Beall (http://fireworks.abeall.com) . Version: 0.6.1  --><!DOCTYPE svg PUBLIC "-//W3C//DTD SVG 1.1//EN" "http://www.w3.org/Graphics/SVG/1.1/DTD/svg11.dtd"><svg id="Untitled-Page%201" viewBox="0 0 30 27" style="background-color:#ffffff00" version="1.1"	xmlns="http://www.w3.org/2000/svg" xmlns:xlink="http://www.w3.org/1999/xlink" xml:space="preserve"	x="0px" y="0px" width="30px" height="27px">	<g id="Layer%201">		<path d="M 24.5495 6.8152 C 24.7956 6.6604 25.0604 6.5648 25.3288 6.5135 L 24.2048 4.7368 C 23.7383 4.0004 22.7743 3.7677 22.0483 4.2184 L 15.6515 8.1953 L 11.3649 10.8604 L 4.6542 15.0332 C 3.8676 15.5215 3.6295 16.5402 4.1246 17.3062 L 5.3177 19.1514 C 5.4967 18.9149 5.715 18.7019 5.9812 18.5344 C 7.1423 17.8011 8.6701 18.1255 9.3976 19.2543 C 10.1243 20.3817 9.7828 21.8932 8.6304 22.6351 C 8.366 22.8056 8.0807 22.9138 7.7905 22.9762 L 9.3546 25.3965 C 9.8461 26.1551 10.8696 26.3594 11.64 25.855 L 18.2146 21.5483 L 22.4152 18.7959 L 28.6822 14.6896 C 29.3934 14.2234 29.5938 13.2549 29.1316 12.5247 L 27.6576 10.1948 C 27.4977 10.417 27.2996 10.6165 27.0564 10.7734 C 25.9906 11.4601 24.5582 11.131 23.8616 10.0335 C 23.1656 8.9365 23.4756 7.493 24.5495 6.8152 Z" fill="#5d646f"/>		<path d="M 16.2138 2.1593 C 16.3916 1.9115 16.61 1.7127 16.8489 1.555 L 15.0924 0.3011 C 14.3645 -0.2176 13.3543 -0.0494 12.8342 0.6772 L 8.3264 6.9826 L 5.3768 11.1087 L 0.8698 17.4143 C 0.3497 18.1407 0.5182 19.1509 1.2461 19.6705 L 3.0021 20.9236 C 3.0746 20.6457 3.1912 20.375 3.368 20.1284 C 4.1406 19.047 5.6447 18.7966 6.727 19.569 C 7.8092 20.3413 8.0598 21.8437 7.2868 22.9249 C 7.1101 23.1725 6.8916 23.3705 6.6519 23.5284 L 8.968 25.1819 C 9.6963 25.7006 10.7069 25.5323 11.2266 24.8058 L 15.7345 18.5011 L 18.6844 14.3742 L 23.1912 8.0695 C 23.7107 7.3424 23.5422 6.3321 22.8148 5.8133 L 20.4983 4.1598 C 20.427 4.4375 20.31 4.7083 20.1333 4.9559 C 19.3611 6.0369 17.8567 6.2874 16.7735 5.5146 C 15.6922 4.7428 15.4414 3.2398 16.2138 2.1593 Z" fill="#ffffff"/>	</g></svg>