<?xml version="1.0" standalone="no"?><!-- Generator: Adobe Fireworks CS5.1, Export SVG Extension by Aaron Beall (http://fireworks.abeall.com) . Version: 0.6.1  --><!DOCTYPE svg PUBLIC "-//W3C//DTD SVG 1.1//EN" "http://www.w3.org/Graphics/SVG/1.1/DTD/svg11.dtd"><svg id="Untitled-Page%201" viewBox="0 0 31 31" style="background-color:#ffffff00" version="1.1"	xmlns="http://www.w3.org/2000/svg" xmlns:xlink="http://www.w3.org/1999/xlink" xml:space="preserve"	x="0px" y="0px" width="31px" height="31px">	<g id="Layer%201">		<path d="M 15 1 C 7.2805 1 1 7.2799 1 15 C 1 22.7201 7.2805 29 15 29 C 22.7195 29 29 22.7201 29 15 C 29 7.2799 22.7195 1 15 1 ZM 22.7964 22.0085 L 21.8793 21.0914 C 21.6332 21.3694 21.3694 21.6326 21.0908 21.8793 L 22.0079 22.7964 C 20.2831 24.3488 18.0477 25.3336 15.5834 25.4703 L 15.5834 24.1772 C 15.5834 24.1909 15.1801 24.1971 15 24.1971 C 14.8199 24.1971 14.4166 24.1909 14.4166 24.1772 L 14.4166 25.4703 C 11.9523 25.3336 9.7169 24.3488 7.9921 22.7964 L 8.9092 21.8793 C 8.6306 21.6326 8.3674 21.3694 8.1207 21.0914 L 7.2036 22.0085 C 5.6512 20.2836 4.6658 18.0477 4.5297 15.5834 L 5.8234 15.5834 C 5.8091 15.5834 5.8029 15.1801 5.8029 15 C 5.8029 14.8199 5.8091 14.4166 5.8234 14.4166 L 4.5297 14.4166 C 4.6658 11.9523 5.6512 9.7164 7.2036 7.9915 L 8.1207 8.9086 C 8.3674 8.6306 8.6306 8.3674 8.9092 8.1207 L 7.9921 7.2036 C 9.7169 5.6512 11.9523 4.6664 14.4166 4.5297 L 14.4166 5.8228 C 14.4166 5.8091 14.8199 5.8029 15 5.8029 C 15.1801 5.8029 15.5834 5.8091 15.5834 5.8228 L 15.5834 4.5297 C 18.0477 4.6664 20.2831 5.6512 22.0079 7.2036 L 21.0908 8.1207 C 21.3694 8.3674 21.6332 8.6306 21.8793 8.9086 L 22.7964 7.9915 C 24.3488 9.7164 25.3342 11.9523 25.4703 14.4166 L 24.1766 14.4166 C 24.1909 14.4166 24.1971 14.8199 24.1971 15 C 24.1971 15.1801 24.1909 15.5834 24.1766 15.5834 L 25.4703 15.5834 C 25.3342 18.0477 24.3488 20.2836 22.7964 22.0085 ZM 21.0731 9.8081 C 21.2999 10.0348 21.2999 10.4069 21.0731 10.6335 L 17.2599 14.4486 C 17.3037 14.6274 17.3334 14.8148 17.3334 15.0068 C 17.3334 16.2954 16.2892 17.347 15 17.347 C 14.1267 17.347 13.3754 16.75 12.9749 16.1666 L 9.75 16.1666 C 9.4293 16.1666 9.1666 15.8761 9.1666 15.5554 L 9.1666 14.4446 C 9.1666 14.1239 9.4293 13.8334 9.75 13.8334 L 12.9749 13.8334 C 13.3754 13.25 14.1267 12.653 15 12.653 C 15.2307 12.653 15.4495 12.7106 15.6597 12.7726 L 19.4376 8.9957 C 19.6644 8.769 20.0358 8.769 20.2626 8.9957 L 21.0731 9.8081 Z" fill="#f1f1f4"/>	</g></svg>