<?xml version="1.0" standalone="no"?><!-- Generator: Adobe Fireworks CS5.1, Export SVG Extension by Aaron Beall (http://fireworks.abeall.com) . Version: 0.6.1  --><!DOCTYPE svg PUBLIC "-//W3C//DTD SVG 1.1//EN" "http://www.w3.org/Graphics/SVG/1.1/DTD/svg11.dtd"><svg id="Untitled-Page%201" viewBox="0 0 32 25" style="background-color:#ffffff00" version="1.1"	xmlns="http://www.w3.org/2000/svg" xmlns:xlink="http://www.w3.org/1999/xlink" xml:space="preserve"	x="0px" y="0px" width="32px" height="25px">	<g id="Layer%201">		<path d="M 32 2.9595 C 30.8226 3.4613 29.5573 3.8005 28.2294 3.9531 C 29.5847 3.172 30.6258 1.9352 31.116 0.4614 C 29.8474 1.1847 28.4424 1.71 26.9469 1.9929 C 25.7494 0.7662 24.0431 0 22.1548 0 C 18.5292 0 15.5896 2.8257 15.5896 6.311 C 15.5896 6.8057 15.6476 7.2874 15.7596 7.7494 C 10.3033 7.4862 5.4658 4.9736 2.2278 1.155 C 1.6627 2.0872 1.3389 3.1714 1.3389 4.328 C 1.3389 6.5178 2.4979 8.4495 4.2595 9.5813 C 3.1833 9.5485 2.171 9.2645 1.2859 8.7919 C 1.2853 8.8182 1.2853 8.8446 1.2853 8.8712 C 1.2853 11.9291 3.5483 14.4799 6.5516 15.0598 C 6.0008 15.204 5.4208 15.2811 4.822 15.2811 C 4.399 15.2811 3.9877 15.2415 3.5868 15.1678 C 4.4222 17.6752 6.8468 19.5001 9.7197 19.5507 C 7.4728 21.2435 4.642 22.2527 1.5661 22.2527 C 1.0361 22.2527 0.5136 22.2227 0 22.1643 C 2.9054 23.9551 6.3563 25 10.0638 25 C 22.1395 25 28.7432 15.3831 28.7432 7.0428 C 28.7432 6.7693 28.7367 6.4971 28.7241 6.2263 C 30.0068 5.3365 31.1199 4.225 32 2.9595 Z" fill="#94989e"/>	</g></svg>