<?xml version="1.0" standalone="no"?><!-- Generator: Adobe Fireworks CS5.1, Export SVG Extension by Aaron Beall (http://fireworks.abeall.com) . Version: 0.6.1  --><!DOCTYPE svg PUBLIC "-//W3C//DTD SVG 1.1//EN" "http://www.w3.org/Graphics/SVG/1.1/DTD/svg11.dtd"><svg id="Untitled-Page%201" viewBox="0 0 28 44" style="background-color:#ffffff00" version="1.1"	xmlns="http://www.w3.org/2000/svg" xmlns:xlink="http://www.w3.org/1999/xlink" xml:space="preserve"	x="0px" y="0px" width="28px" height="44px">	<g id="Layer%201">		<path d="M 5.1045 12.0694 L 0.2735 19.5971 C -0.3849 20.6246 0.185 21.4386 1.5589 21.4045 L 8.0926 21.2248 C 9.0095 24.3607 13.5795 44 13.5795 44 C 13.5795 44 19.4295 24.7827 20.0197 20.9077 L 26.489 20.7322 C 27.8517 20.6982 28.3965 19.8556 27.6908 18.8621 L 22.5378 11.6024 C 21.8336 10.6117 20.682 8.9826 19.9804 7.9877 L 14.8233 0.7253 C 14.1219 -0.2655 12.9977 -0.2396 12.3368 0.7933 L 7.5097 8.3157 C 6.8474 9.3527 5.7661 11.0418 5.1045 12.0694 Z" fill="#ffffff"/>	</g></svg>