<?xml version="1.0" standalone="no"?><!-- Generator: Adobe Fireworks CS5.1, Export SVG Extension by Aaron Beall (http://fireworks.abeall.com) . Version: 0.6.1  --><!DOCTYPE svg PUBLIC "-//W3C//DTD SVG 1.1//EN" "http://www.w3.org/Graphics/SVG/1.1/DTD/svg11.dtd"><svg id="Untitled-Page%201" viewBox="0 0 27 25" style="background-color:#ffffff00" version="1.1"	xmlns="http://www.w3.org/2000/svg" xmlns:xlink="http://www.w3.org/1999/xlink" xml:space="preserve"	x="0px" y="0px" width="27px" height="25px">	<g id="Layer%201">		<path d="M 26.5 21.2759 C 26.5 22.4468 26.5 24.6266 26.5 24.6266 C 26.5 24.7884 26.3631 25 26.1974 25 L 0.8025 25 C 0.6368 25 0.5 24.7884 0.5 24.6266 C 0.5 24.6266 0.5 22.4468 0.5 21.2759 C 0.5 20.1063 0.7252 19.6257 1.6304 19.1201 C 2.3579 18.7131 7.2462 16.5256 9.5435 15.5555 L 9.5435 11.3705 C 8.838 10.866 8.413 10.0835 8.413 8.8889 C 8.413 6.1111 8.413 4.9999 8.413 4.9999 C 8.413 2.2504 10.1087 0 13.5 0 C 16.8913 0 18.587 2.2504 18.587 4.9999 L 18.587 8.8889 C 18.587 10.0716 18.1619 10.8518 17.4565 11.3585 L 17.4565 15.5555 C 19.8951 16.5256 24.6421 18.7131 25.3696 19.1201 C 26.2748 19.6257 26.5 20.1063 26.5 21.2759 Z" fill="#cccccc"/>	</g></svg>